<?xml version="1.0" encoding="UTF-8" standalone="no"?>
<!-- Created with Inkscape (http://www.inkscape.org/) -->

<svg
   xmlns:dc="http://purl.org/dc/elements/1.1/"
   xmlns:cc="http://creativecommons.org/ns#"
   xmlns:rdf="http://www.w3.org/1999/02/22-rdf-syntax-ns#"
   xmlns:svg="http://www.w3.org/2000/svg"
   xmlns="http://www.w3.org/2000/svg"
   xmlns:sodipodi="http://sodipodi.sourceforge.net/DTD/sodipodi-0.dtd"
   xmlns:inkscape="http://www.inkscape.org/namespaces/inkscape"
   width="172.03705mm"
   height="62.860985mm"
   viewBox="0 0 172.03705 62.860985"
   version="1.1"
   id="svg8"
   inkscape:version="0.92.1 r15371"
   sodipodi:docname="2.svg">
  <defs
     id="defs2" />
  <sodipodi:namedview
     id="base"
     pagecolor="#ffffff"
     bordercolor="#666666"
     borderopacity="1.0"
     inkscape:pageopacity="0.0"
     inkscape:pageshadow="2"
     inkscape:zoom="1.4"
     inkscape:cx="425.16526"
     inkscape:cy="6.9716709"
     inkscape:document-units="mm"
     inkscape:current-layer="flowRoot3680"
     showgrid="false"
     inkscape:window-width="1920"
     inkscape:window-height="1027"
     inkscape:window-x="1672"
     inkscape:window-y="-8"
     inkscape:window-maximized="1"
     fit-margin-bottom="0"
     fit-margin-top="-2.7755576e-017"
     fit-margin-left="0"
     fit-margin-right="0" />
  <metadata
     id="metadata5">
    <rdf:RDF>
      <cc:Work
         rdf:about="">
        <dc:format>image/svg+xml</dc:format>
        <dc:type
           rdf:resource="http://purl.org/dc/dcmitype/StillImage" />
        <dc:title></dc:title>
      </cc:Work>
    </rdf:RDF>
  </metadata>
  <g
     inkscape:label="Layer 1"
     inkscape:groupmode="layer"
     id="layer1"
     transform="translate(-18.502524,-12.639995)">
    <g
       aria-label="Anmary"
       transform="matrix(0.46469025,0,0,0.72961608,-0.7167739,-161.88546)"
       style="font-style:normal;font-weight:normal;font-size:40px;line-height:1.25;font-family:sans-serif;letter-spacing:0px;word-spacing:0px;fill:#333333;fill-opacity:1;stroke:none"
       id="flowRoot3680">
      <path  
         d="m 64.75,292.02989 q -3.65625,5.20313 -3.65625,10.35938 0,5.39062 3.609375,7.875 3.609375,2.48437 8.578125,2.48437 3.796875,0 10.40625,-0.98437 0.234375,-0.42188 5.484375,-6 4.78125,-5.0625 14.484375,-16.21875 Q 80.5,290.34239 64.75,292.02989 Z m 53.53125,-11.0625 q 3.60938,0.42188 10.17187,1.64063 6.5625,1.17187 14.25,2.76562 -1.82812,-14.90625 -5.8125,-31.73437 -5.15625,9.32812 -18.60937,27.32812 z M 104.125,250.77989 q 0.46875,-1.07812 1.21875,-2.25 1.40625,-2.53125 2.34375,-4.3125 15.89063,-5.01562 29.71875,-5.01562 4.40625,0 8.39062,0.9375 3.79688,0.89062 6.1875,3.14062 2.34375,2.15625 3.65625,6.46875 1.35938,4.3125 2.10938,10.45313 l 1.07812,8.4375 3.14063,21.79687 q 1.875,13.35938 3.9375,20.71875 -14.90625,4.35938 -21.14063,7.3125 0,-5.29687 -1.5,-28.78125 -8.76562,-0.5625 -11.90625,-0.5625 -3.37499,0.14063 -8.90624,0.46875 -5.48438,0.28125 -10.26563,0.5625 -17.8125,19.64063 -28.734375,26.01563 -11.015625,6.42187 -20.671875,6.42187 -9.375,0 -15.375,-4.6875 -6.046875,-4.64062 -6.046875,-9.70312 0,-5.71875 6.328125,-12.75 6.234375,-6.9375 16.546875,-12.23438 10.265625,-5.20312 24.421875,-5.20312 3.375,0 6.421875,0.1875 3.09375,0.1875 6.937505,0.60937 3.89062,0.42188 7.875,0.98438 l 9.42187,-13.64063 q 2.76563,-4.03125 11.0625,-18.42187 -5.53125,0.14062 -12.28125,0.9375 -6.70312,0.79687 -13.96875,2.10937 z"
         style="font-style:normal;font-variant:normal;font-weight:normal;font-stretch:normal;font-size:96px;font-family:'Matura MT Script Capitals';-inkscape-font-specification:'Matura MT Script Capitals, Normal';font-variant-ligatures:normal;font-variant-caps:normal;font-variant-numeric:normal;font-feature-settings:normal;text-align:start;writing-mode:lr-tb;text-anchor:start"
         id="path3716">

         </path>
      <path 
         d="m 182.73437,262.82677 4.5,-1.35938 v 6.14063 q 1.3125,-0.79688 4.6875,-2.71875 1.125,-0.60938 2.20313,-1.3125 l 3.98437,-2.39063 q 4.35938,0.60938 6.65625,1.5 2.20313,0.89063 3.65625,2.67188 1.40625,1.73437 1.92188,3.51562 0.46875,1.59375 0.46875,5.29688 0,4.40625 -0.84375,10.40625 -0.89063,6.375 -0.98438,10.96875 l -8.67187,5.53125 -1.3125,0.89062 q -3.75,2.57813 -6.14063,3.51563 2.71875,-12.98438 2.71875,-20.34375 0,-8.85938 -3.89062,-15.5625 -0.14063,0.1875 -1.6875,1.6875 l -0.84375,0.9375 -1.92188,1.92187 0.23438,26.95313 q -7.64063,0.23437 -15.89063,2.25 0,-2.4375 0.0469,-3.23438 0.0937,-2.90625 0.0937,-3.46875 v -1.07812 q -0.14063,-1.96875 -0.14063,-2.76563 v -11.0625 q 0,-8.39062 -0.28125,-15.04687 0.60938,-0.1875 1.40625,-0.42188 0.79688,-0.28125 1.78125,-0.60937 1.03125,-0.32813 2.15625,-0.75 z"
         style="font-style:normal;font-variant:normal;font-weight:normal;font-stretch:normal;font-size:96px;font-family:'Matura MT Script Capitals';-inkscape-font-specification:'Matura MT Script Capitals, Normal';font-variant-ligatures:normal;font-variant-caps:normal;font-variant-numeric:normal;font-feature-settings:normal;text-align:start;writing-mode:lr-tb;text-anchor:start"
         id="path3718" />
      <path 
         d="m 217.84375,271.12364 v -5.76562 q 6.1875,-1.125 15.09375,-3.79688 l 0.1875,7.45313 q 4.875,-4.96875 7.21875,-7.45313 12.42187,2.29688 14.01562,7.6875 2.95313,-3.60937 7.125,-7.6875 5.90625,0.1875 10.125,2.0625 4.125,1.82813 5.67188,4.6875 1.54687,2.85938 1.54687,7.92188 0,3.89062 -0.5625,9.75 -0.375,4.125 -0.375,5.71875 0,1.17187 0.23438,4.82812 -5.57813,5.10938 -15.51563,10.54688 0.5625,-3.60938 0.9375,-12.14063 l 0.0937,-1.07812 q 0.23438,-4.3125 0.23438,-6.75 0,-6.51563 -1.3125,-9.60938 -1.35938,-3.1875 -4.40625,-6.04687 -1.96875,4.96875 -2.48438,5.95312 0.1875,3.75 0.1875,9.89063 0,7.59375 -0.375,13.35937 -10.875,1.82813 -14.34375,3.32813 0.0469,-3.14063 0.0469,-5.53125 0,-21.09375 -4.875,-26.39063 l -3,5.34375 0.60937,23.8125 q -13.03125,1.26563 -17.34375,2.0625 1.26563,-14.90625 1.26563,-32.15625 z"
         style="font-style:normal;font-variant:normal;font-weight:normal;font-stretch:normal;font-size:96px;font-family:'Matura MT Script Capitals';-inkscape-font-specification:'Matura MT Script Capitals, Normal';font-variant-ligatures:normal;font-variant-caps:normal;font-variant-numeric:normal;font-feature-settings:normal;text-align:start;writing-mode:lr-tb;text-anchor:start"
         id="path3720" />
      <path 
         d="M 299.96875,272.85802 301,291.27989 q 2.57812,-2.85937 5.10937,-6.42187 2.53125,-3.60938 4.3125,-6.75 -2.57812,-3.70313 -10.45312,-5.25 z m 0.1875,-11.29688 q 0.70312,0.1875 8.48437,1.64063 7.03125,1.26562 9.28125,1.96875 2.20313,0.79687 4.17188,2.53125 1.96875,1.73437 2.95312,4.875 0.98438,3.09375 0.98438,8.39062 l -0.23438,13.78125 q 0,2.4375 0.46875,5.71875 -4.35937,0.70313 -15.98437,4.03125 0.84375,-6.42187 0.84375,-17.67187 -0.79688,1.3125 -4.64063,5.53125 -3.84375,4.21875 -10.96875,11.53125 -5.48437,-1.45313 -8.4375,-2.8125 -0.1875,-1.78125 -0.75,-5.53125 -0.79687,-5.85938 -0.79687,-10.59375 0,-6.84375 2.85937,-11.53125 2.76563,-4.64063 11.76563,-11.85938 z"
         style="font-style:normal;font-variant:normal;font-weight:normal;font-stretch:normal;font-size:96px;font-family:'Matura MT Script Capitals';-inkscape-font-specification:'Matura MT Script Capitals, Normal';font-variant-ligatures:normal;font-variant-caps:normal;font-variant-numeric:normal;font-feature-settings:normal;text-align:start;writing-mode:lr-tb;text-anchor:start"
         id="path3722" />
      <path 
         d="m 334.98437,275.38927 0.32813,-13.5 14.20312,1.3125 0.79688,10.82812 q 1.125,-3.1875 2.01562,-6.1875 0.70313,-2.48437 1.54688,-3.84375 0.75,-1.3125 2.67187,-2.29687 1.82813,-0.98438 4.40625,-0.98438 2.90625,0 6.42188,1.35938 l -1.54688,5.95312 q -1.17187,4.82813 -2.95312,10.6875 -5.625,-3.70312 -7.59375,-4.26562 -3.75,4.92187 -4.45313,7.45312 0.28125,4.21875 0.60938,6.51563 4.21875,1.5 7.45312,1.5 -1.96875,5.53125 -4.82812,12.09375 -9.75,0 -11.95313,-1.17188 -2.29687,-1.125 -4.78125,-3.84375 -2.53125,-2.76562 -2.53125,-10.5 0,-5.0625 0.1875,-11.10937 z"
         style="font-style:normal;font-variant:normal;font-weight:normal;font-stretch:normal;font-size:96px;font-family:'Matura MT Script Capitals';-inkscape-font-specification:'Matura MT Script Capitals, Normal';font-variant-ligatures:normal;font-variant-caps:normal;font-variant-numeric:normal;font-feature-settings:normal;text-align:start;writing-mode:lr-tb;text-anchor:start"
         id="path3724" />
      <path 
         d="m 370.89062,274.35802 v -9.70313 Q 381.20312,264.32677 388,261.79552 l -0.65625,10.45312 -0.60938,12.09375 q 4.40625,-7.17187 5.85938,-10.875 1.54687,-3.89062 2.67187,-10.82812 5.71875,0.46875 16.3125,1.26562 -0.84375,3.84375 -2.4375,18.5625 l -1.45312,15.32813 q -0.65625,6.60937 -1.45313,9.46875 -0.98437,3.14062 -3.89062,7.40625 -3.14063,4.59375 -8.95313,10.6875 -14.76562,-1.35938 -22.6875,-6.9375 l -2.67187,-6.42188 q 2.10937,-3.42187 5.76562,-8.15625 2.53125,3.09375 7.35938,4.26563 4.875,1.21875 11.67187,2.25 -0.9375,-10.875 -0.9375,-17.10938 0,-3.84375 0.28125,-9.09375 l -10.59375,13.64063 q -1.73437,2.15625 -2.10937,4.21875 -3.75,-0.46875 -7.07813,-1.96875 -0.42187,-3.60938 -0.70312,-7.59375 -0.28125,-2.95313 -0.51563,-8.85938 -0.23437,-4.875 -0.28125,-9.23437 z"
         style="font-style:normal;font-variant:normal;font-weight:normal;font-stretch:normal;font-size:96px;font-family:'Matura MT Script Capitals';-inkscape-font-specification:'Matura MT Script Capitals, Normal';font-variant-ligatures:normal;font-variant-caps:normal;font-variant-numeric:normal;font-feature-settings:normal;text-align:start;writing-mode:lr-tb;text-anchor:start"
         id="path3726" />
    </g>
  </g>
</svg>
