<svg version="1" xmlns="http://www.w3.org/2000/svg" width="513.333" height="513.333" viewBox="0 0 385.000000 385.000000"><path d="M267.6 9.6c-12.5 1.9-26.1 5.8-40.6 11.5-20.6 8.1-19.6 7.2-25.2 22.8-2.6 7.4-4.6 13.6-4.4 13.8.2.3 4.6-.7 9.7-2.1 19.3-5.2 58.9-11.8 62.7-10.5.7.2-4.3 14.8-11.7 34.4-13.2 35.1-16.5 43.3-34.5 84.1l-10.7 24.1-11.7-2.3c-32.3-6.4-58.1-7-77.7-2-13.1 3.3-29.7 11.6-40.1 20-27.2 21.8-51.2 56-60 85.2-3.5 11.8-4.4 29.8-1.9 39.3 3.3 12.9 13.7 29.1 23.7 37.1 17.3 13.7 39.6 15.6 61.6 5 30.6-14.7 58.2-46.6 99.2-115 6.8-11.3 12.6-20.8 12.9-21.2.9-1.1 46.5-4.9 57.7-4.9 10.3.1 29.4 1.7 30.3 2.6.6.7 4 87.4 4.1 106.5 0 8.5.3 16.5.6 17.6.5 2 1.2 1.7 10.7-4.2 5.6-3.6 18.6-10.6 28.9-15.7 21.4-10.5 19.7-8.3 17.3-23.2-3.6-22.2-13.3-119.2-19.5-195-3.2-39.5-5.2-55.2-9.1-70.9-7.1-28-21.5-38.8-51.8-38.5-6.4.1-15.6.7-20.5 1.5zM292.9 96c4.1 30.1 7.5 58.8 10 85.5 1.2 12.1 2.3 23.9 2.6 26.2.5 5.1.3 5.1-8.1 2.3-8.9-3.1-49.1-14.6-55.7-16-3.1-.6-5.5-1.5-5.3-1.8 1.1-1.9 21.3-45.9 28.1-61.2 7.7-17.5 18.6-43.9 22-53.8 1.1-2.8 2.2-4.9 2.6-4.5.3.5 2.1 10.9 3.8 23.3zM195 230.8c0 1.2-27.5 49.9-42.8 75.8l-13.7 23.1-9.5 1.9c-5.2 1-13.5 1.8-18.5 1.8-10.7 0-15.8-1.9-23-8.5-9.5-8.8-12.9-20.3-12.2-40.9.4-14.3 2.5-24.5 7.3-36.5l2.5-6.2 11.2-1.7c22.4-3.3 57.9-6.8 92.2-8.9 2.8-.2 5.3-.4 5.8-.5.4-.1.7.1.7.6z"/></svg>